<?xml version="1.0" encoding="UTF-8"?>
<svg id="Camada_1" data-name="Camada 1" xmlns="http://www.w3.org/2000/svg" viewBox="0 0 16 16">
  <defs>
    <style>
      .cls-1 {
        fill: #3675e1;
      }
    </style>
  </defs>
  <path class="cls-1" d="M10.45.53h-4.9C2.78.53.53,2.78.53,5.55v4.9c0,2.77,2.25,5.02,5.02,5.02h4.9c2.77,0,5.02-2.25,5.02-5.02v-4.9c0-2.77-2.25-5.02-5.02-5.02ZM11.12,12.03h-5.52c-.32,0-.59-.21-.69-.51-.09-.3.02-.62.27-.8l5.26-3.81.4.56-5.26,3.82s-.01.01-.01.03t.03,0h5.52v.7ZM10.8,5.34l-5.16,3.74-.41-.56,5.17-3.75s.04-.02.03-.06c-.02-.04-.05-.04-.06-.04h-5.49v-.7h5.49c.34,0,.62.21.72.53.1.32-.01.65-.29.84Z"/>
</svg>