<?xml version="1.0" encoding="UTF-8"?>
<svg id="Camada_1" data-name="Camada 1" xmlns="http://www.w3.org/2000/svg" viewBox="0 0 16 16">
  <defs>
    <style>
      .cls-1 {
        fill: #f6f6f6;
      }

      .cls-2 {
        fill: #1d1d1b;
        stroke: #3675e1;
        stroke-linecap: square;
        stroke-linejoin: bevel;
        stroke-width: .5px;
      }
    </style>
  </defs>
  <rect class="cls-2" x="1.25" y="1.25" width="13.49" height="13.49" rx="2.38" ry="2.38"/>
  <g>
    <path class="cls-1" d="M5.85,8.99l-.37-.51,4.72-3.42s.03-.02.02-.06-.04-.04-.05-.04h-5.01v-.63h5.01c.3,0,.56.19.65.48.09.29,0,.59-.26.76l-4.71,3.42Z"/>
    <path class="cls-1" d="M10.85,11.67h-5.04c-.29,0-.54-.18-.62-.46-.09-.27.01-.57.25-.73l4.79-3.47.37.51-4.8,3.48s-.01,0,0,.03.01.02.02.02h5.04v.63Z"/>
  </g>
</svg>