<?xml version="1.0" encoding="UTF-8"?>
<svg id="Camada_1" data-name="Camada 1" xmlns="http://www.w3.org/2000/svg" viewBox="0 0 1024 1024">
  <defs>
    <style>
      .cls-1 {
        fill: #f6f6f6;
      }
    </style>
  </defs>
  <path class="cls-1" d="M346.29,588.06l-28.48-39.29,362.76-262.97c.74-.52,2.47-1.73,1.57-4.61-.91-2.88-3.02-2.88-3.92-2.88h-385.18v-48.52h385.18c23.45,0,43.16,14.45,50.2,36.82,7.02,22.29-.76,45.35-19.83,58.81l-362.3,262.63Z"/>
  <path class="cls-1" d="M730.92,794.2h-387.48c-22.08,0-41.38-14.15-48.02-35.22-6.61-20.99,1.01-43.56,18.97-56.24l368.38-266.92,28.47,39.29-368.84,267.25c-.63.44-1.09.77-.69,2.04s.96,1.27,1.74,1.27h387.48v48.52Z"/>
</svg>