<?xml version="1.0" encoding="UTF-8"?>
<svg id="Camada_1" data-name="Camada 1" xmlns="http://www.w3.org/2000/svg" viewBox="0 0 1024 1024">
  <defs>
    <style>
      .cls-1 {
        fill: #f6f6f6;
      }
    </style>
  </defs>
  <path class="cls-1" d="M384.61,570.47l-21.89-30.2,278.87-202.15c.57-.4,1.9-1.33,1.2-3.54s-2.32-2.21-3.02-2.21h-296.1v-37.3h296.1c18.03,0,33.18,11.11,38.59,28.3,5.4,17.13-.59,34.86-15.25,45.21l-278.51,201.9Z"/>
  <path class="cls-1" d="M680.3,728.94h-297.87c-16.98,0-31.81-10.88-36.91-27.07-5.08-16.13.78-33.49,14.58-43.24l283.19-205.19,21.89,30.21-283.55,205.45c-.49.34-.84.59-.53,1.57s.74.98,1.33.98h297.87v37.3Z"/>
</svg>